<svg width="450" height="150" viewBox="0 0 450 150" fill="none" xmlns="http://www.w3.org/2000/svg">
<g filter="url(#filter0_d_3_45)">
<path d="M60.75 64.4062V80.25H70.875C73.5833 80.25 75.6354 79.5312 77.0312 78.0938C78.4479 76.6562 79.1562 74.75 79.1562 72.375C79.1562 70 78.4479 68.0833 77.0312 66.625C75.6146 65.1458 73.5625 64.4062 70.875 64.4062H60.75ZM70.875 84.5625H60.75V101H55.2188V60.0625H70.875C75.2083 60.0625 78.5938 61.1771 81.0312 63.4062C83.4688 65.6146 84.6875 68.6042 84.6875 72.375C84.6875 76.125 83.4688 79.0938 81.0312 81.2812C78.6146 83.4688 75.2292 84.5625 70.875 84.5625ZM95 85.5625V86.1875C95 89.5625 95.6875 92.2604 97.0625 94.2812C98.4583 96.3021 100.458 97.3125 103.062 97.3125C105.667 97.3125 107.667 96.3021 109.062 94.2812C110.458 92.2396 111.156 89.5417 111.156 86.1875V85.5625C111.156 82.25 110.448 79.5729 109.031 77.5312C107.635 75.4688 105.635 74.4375 103.031 74.4375C100.448 74.4375 98.4583 75.4688 97.0625 77.5312C95.6875 79.5729 95 82.25 95 85.5625ZM89.4375 86.1875V85.5625C89.4375 80.9792 90.6667 77.25 93.125 74.375C95.5833 71.5 98.8958 70.0625 103.062 70.0625C107.229 70.0625 110.542 71.5 113 74.375C115.458 77.2292 116.688 80.9583 116.688 85.5625V86.1875C116.688 90.8125 115.458 94.5521 113 97.4062C110.562 100.24 107.25 101.656 103.062 101.656C98.8958 101.656 95.5833 100.229 93.125 97.375C90.6667 94.5208 89.4375 90.7917 89.4375 86.1875ZM127.781 86.4375C127.781 89.7083 128.385 92.2917 129.594 94.1875C130.906 96.2708 133 97.3125 135.875 97.3125C137.75 97.3125 139.375 96.7396 140.75 95.5938C142.125 94.4479 142.812 93.0625 142.812 91.4375H147.781L147.844 91.625C147.948 94.2708 146.792 96.6042 144.375 98.625C141.958 100.646 139.125 101.656 135.875 101.656C131.542 101.656 128.177 100.25 125.781 97.4375C123.385 94.625 122.188 90.9583 122.188 86.4375V85.25C122.188 80.75 123.385 77.0938 125.781 74.2812C128.198 71.4688 131.562 70.0625 135.875 70.0625C139.417 70.0625 142.323 71.1042 144.594 73.1875C146.865 75.2708 147.958 77.8646 147.875 80.9688L147.812 81.125H142.812C142.812 79.25 142.156 77.6667 140.844 76.375C139.531 75.0833 137.896 74.4375 135.938 74.4375C134 74.4375 132.406 74.9271 131.156 75.9062C129.927 76.8854 129.052 78.1562 128.531 79.7188C128.031 81.2812 127.781 83.125 127.781 85.25V86.4375ZM159.625 86.9688V101H154.094V57.125H159.625V82.5625H163.156L171.5 70.5625H178.125L167.719 84.4062L179.625 101H173.094L163.219 86.9688H159.625ZM201.719 82.0938C201.719 79.8021 201.125 77.9583 199.938 76.5625C198.75 75.1458 197.042 74.4375 194.812 74.4375C192.979 74.4375 191.396 75.2083 190.062 76.75C188.75 78.2917 187.938 80.2604 187.625 82.6562L187.688 82.8125H201.719V82.0938ZM195.656 101.656C191.427 101.656 188.052 100.26 185.531 97.4688C183.031 94.6771 181.781 91 181.781 86.4375V85.1875C181.781 80.9167 183.052 77.3333 185.594 74.4375C188.156 71.5208 191.229 70.0625 194.812 70.0625C198.854 70.0625 201.938 71.2812 204.062 73.7188C206.208 76.1354 207.281 79.4583 207.281 83.6875V87.1562H187.531L187.438 87.2812C187.5 90.2812 188.25 92.7083 189.688 94.5625C191.146 96.3958 193.135 97.3125 195.656 97.3125C199.198 97.3125 202.073 96.3125 204.281 94.3125L206.469 97.9062H206.438C203.896 100.406 200.302 101.656 195.656 101.656ZM210.811 57.352L250.299 55.048L250.555 60.36L211.195 62.728L210.811 57.352ZM227.643 64.84L233.467 64.52L234.811 102.28L228.987 102.6L227.643 64.84ZM262.281 70.5625V101H256.75V70.5625H262.281ZM262.281 57.125V62.7812H256.75V57.125H262.281ZM296.75 87.6562V88.25C296.75 92.6875 295.688 96.2396 293.562 98.9062C291.458 101.552 288.562 102.875 284.875 102.875C281.188 102.875 278.344 101.625 276.344 99.125V114H270.812V71.875H275.062L275.938 75.8125C277.958 72.8125 280.875 71.3125 284.688 71.3125C288.521 71.3125 291.49 72.7917 293.594 75.75C295.698 78.6875 296.75 82.6562 296.75 87.6562ZM291.188 88.25V87.6562C291.188 84.0729 290.49 81.2083 289.094 79.0625C287.719 76.8958 285.74 75.8125 283.156 75.8125C280.094 75.8125 277.823 77.1562 276.344 79.8438V94.5625C277.802 97.2292 280.094 98.5625 283.219 98.5625C285.781 98.5625 287.75 97.625 289.125 95.75C290.5 93.875 291.188 91.375 291.188 88.25ZM314.875 97.25C316.833 97.25 318.375 96.8646 319.5 96.0938C320.625 95.3021 321.188 94.2604 321.188 92.9688C321.188 91.6771 320.708 90.6562 319.75 89.9062C318.792 89.1354 317.052 88.4583 314.531 87.875C310.698 87.0417 307.875 85.9375 306.062 84.5625C304.271 83.1667 303.375 81.25 303.375 78.8125C303.375 76.375 304.438 74.3021 306.562 72.5938C308.688 70.8646 311.458 70 314.875 70C318.292 70 321.052 70.9062 323.156 72.7188C325.281 74.5104 326.292 76.7396 326.188 79.4062L326.125 79.5625H320.844C320.844 78.1667 320.271 76.9583 319.125 75.9375C318 74.9167 316.51 74.4062 314.656 74.4062C312.823 74.4062 311.406 74.8229 310.406 75.6562C309.406 76.4688 308.906 77.5104 308.906 78.7812C308.906 80.0521 309.344 81.0208 310.219 81.6875C311.094 82.3542 312.812 82.9583 315.375 83.5C319.292 84.3542 322.167 85.5 324 86.9375C325.833 88.3542 326.75 90.2396 326.75 92.5938C326.75 95.3021 325.656 97.4896 323.469 99.1562C321.302 100.823 318.385 101.656 314.719 101.656C311.052 101.656 308.083 100.698 305.812 98.7812C303.562 96.8646 302.49 94.5417 302.594 91.8125L302.656 91.6562H307.938C308.042 93.5312 308.74 94.9479 310.031 95.9062C311.344 96.8438 312.979 97.3125 314.938 97.3125L314.875 97.25ZM335.438 63.2812H341.031V70.625H346.781V74.75H341.031V93.2188C341.031 95.8021 342.104 97.0938 344.25 97.0938C344.917 97.0938 345.604 96.9688 346.312 96.7188L347.031 100.5C346.031 101.271 344.625 101.656 342.812 101.656C340.479 101.656 338.667 100.958 337.375 99.5625C336.083 98.1667 335.438 96.0521 335.438 93.2188V74.75H330.625V70.625H335.438V63.2812ZM372.281 82.0938C372.281 79.8021 371.688 77.9583 370.5 76.5625C369.312 75.1458 367.604 74.4375 365.375 74.4375C363.542 74.4375 361.958 75.2083 360.625 76.75C359.312 78.2917 358.5 80.2604 358.188 82.6562L358.25 82.8125H372.281V82.0938ZM366.219 101.656C361.99 101.656 358.615 100.26 356.094 97.4688C353.594 94.6771 352.344 91 352.344 86.4375V85.1875C352.344 80.9167 353.615 77.3333 356.156 74.4375C358.719 71.5208 361.792 70.0625 365.375 70.0625C369.417 70.0625 372.5 71.2812 374.625 73.7188C376.771 76.1354 377.844 79.4583 377.844 83.6875V87.1562H358.094L358 87.2812C358.062 90.2812 358.812 92.7083 360.25 94.5625C361.708 96.3958 363.698 97.3125 366.219 97.3125C369.76 97.3125 372.635 96.3125 374.844 94.3125L377.031 97.9062H377C374.458 100.406 370.865 101.656 366.219 101.656ZM389.656 101.031H384.125V70.5938H389.062L389.594 75.0312C391.448 71.6771 393.969 70 397.156 70C397.906 70 398.615 70.1042 399.281 70.3125L398.531 75.5L395.688 75.3125C392.833 75.3125 390.823 76.6354 389.656 79.2812V101.031Z" fill="#E6DDC4"/>
</g>
<defs>
<filter id="filter0_d_3_45" x="51.2188" y="55.048" width="352.062" height="66.952" filterUnits="userSpaceOnUse" color-interpolation-filters="sRGB">
<feFlood flood-opacity="0" result="BackgroundImageFix"/>
<feColorMatrix in="SourceAlpha" type="matrix" values="0 0 0 0 0 0 0 0 0 0 0 0 0 0 0 0 0 0 127 0" result="hardAlpha"/>
<feOffset dy="4"/>
<feGaussianBlur stdDeviation="2"/>
<feComposite in2="hardAlpha" operator="out"/>
<feColorMatrix type="matrix" values="0 0 0 0 0 0 0 0 0 0 0 0 0 0 0 0 0 0 0.25 0"/>
<feBlend mode="normal" in2="BackgroundImageFix" result="effect1_dropShadow_3_45"/>
<feBlend mode="normal" in="SourceGraphic" in2="effect1_dropShadow_3_45" result="shape"/>
</filter>
</defs>
</svg>
